<?xml version="1.0" encoding="UTF-8" standalone="no"?>
<!-- Created with Inkscape (http://www.inkscape.org/) -->

<svg
   width="55.795887mm"
   height="68.485535mm"
   viewBox="0 0 55.795887 68.485535"
   version="1.1"
   id="svg1"
   xml:space="preserve"
   inkscape:version="1.3 (0e150ed6c4, 2023-07-21)"
   sodipodi:docname="j3_logo.svg"
   xmlns:inkscape="http://www.inkscape.org/namespaces/inkscape"
   xmlns:sodipodi="http://sodipodi.sourceforge.net/DTD/sodipodi-0.dtd"
   xmlns:xlink="http://www.w3.org/1999/xlink"
   xmlns="http://www.w3.org/2000/svg"
   xmlns:svg="http://www.w3.org/2000/svg"><sodipodi:namedview
     id="namedview1"
     pagecolor="#ffffff"
     bordercolor="#000000"
     borderopacity="0.25"
     inkscape:showpageshadow="2"
     inkscape:pageopacity="0.0"
     inkscape:pagecheckerboard="0"
     inkscape:deskcolor="#d1d1d1"
     inkscape:document-units="mm"
     inkscape:zoom="0.36569515"
     inkscape:cx="-232.43404"
     inkscape:cy="-140.82768"
     inkscape:window-width="1920"
     inkscape:window-height="1017"
     inkscape:window-x="-8"
     inkscape:window-y="-8"
     inkscape:window-maximized="1"
     inkscape:current-layer="layer1" /><defs
     id="defs1"><linearGradient
       id="linearGradient6"
       inkscape:collect="always"><stop
         style="stop-color:#01aef0;stop-opacity:1;"
         offset="0"
         id="stop7" /><stop
         style="stop-color:#14489f;stop-opacity:1;"
         offset="1"
         id="stop8" /></linearGradient><linearGradient
       id="linearGradient4"
       inkscape:collect="always"><stop
         style="stop-color:#ee1c25;stop-opacity:1;"
         offset="0"
         id="stop4" /><stop
         style="stop-color:#c60a0f;stop-opacity:1;"
         offset="0.56262791"
         id="stop12" /><stop
         style="stop-color:#9c0d13;stop-opacity:1;"
         offset="0.69007045"
         id="stop6" /><stop
         style="stop-color:#d30509;stop-opacity:1;"
         offset="0.7462672"
         id="stop11" /><stop
         style="stop-color:#e41b22;stop-opacity:1;"
         offset="1"
         id="stop5" /></linearGradient><linearGradient
       inkscape:collect="always"
       xlink:href="#linearGradient4"
       id="linearGradient5"
       x1="133.10178"
       y1="173.90674"
       x2="118.30801"
       y2="241.37387"
       gradientUnits="userSpaceOnUse" /><linearGradient
       inkscape:collect="always"
       xlink:href="#linearGradient6"
       id="linearGradient8"
       x1="140.32611"
       y1="178.05305"
       x2="140.32611"
       y2="226.34721"
       gradientUnits="userSpaceOnUse" /><linearGradient
       inkscape:collect="always"
       xlink:href="#linearGradient4"
       id="linearGradient12"
       gradientUnits="userSpaceOnUse"
       x1="133.10178"
       y1="173.90674"
       x2="118.30801"
       y2="241.37387" /><linearGradient
       inkscape:collect="always"
       xlink:href="#linearGradient4"
       id="linearGradient13"
       gradientUnits="userSpaceOnUse"
       x1="133.10178"
       y1="173.90674"
       x2="118.30801"
       y2="241.37387" /></defs><g
     inkscape:label="Layer 1"
     inkscape:groupmode="layer"
     id="layer1"
     transform="translate(-118.26987,-172.94534)"><g
       id="g12"><g
         id="g3"><g
           id="g4"
           style="fill:url(#linearGradient5)"><path
             style="fill:url(#linearGradient12)"
             d="m 120.41505,241.01539 c -0.98541,-0.5266 -2.14562,-2.42936 -2.14518,-3.51811 2.1e-4,-0.52405 0.28462,-0.82526 1.33763,-1.41669 1.74728,-0.98137 3.06899,-2.32631 3.7784,-3.84482 0.56926,-1.21849 0.57264,-1.33357 0.64753,-22.07084 l 0.0753,-20.84596 0.71846,-0.2821 c 1.16944,-0.45916 4.55965,-0.38355 5.53105,0.12336 1.77797,0.92781 1.66971,-0.51335 1.66971,22.22603 0,22.13153 -0.004,22.19805 -1.36774,24.87186 -0.78872,1.54602 -2.80491,3.57619 -4.31557,4.34549 -1.77998,0.90646 -4.63315,1.1046 -5.92958,0.41178 z"
             id="path1" /><path
             style="fill:url(#linearGradient13)"
             d="m 126.27569,182.03468 c -1.40958,-0.51639 -2.88312,-2.19301 -3.11057,-3.53927 -0.35553,-2.10437 0.73105,-4.19895 2.62431,-5.05882 2.44536,-1.11063 5.27915,-0.27821 6.44591,1.89346 0.52144,0.97057 0.60957,1.44117 0.50309,2.68665 -0.0808,0.94464 -0.33875,1.80442 -0.68911,2.29645 -1.25632,1.76434 -3.68226,2.48768 -5.77363,1.72153 z"
             id="path3" /></g></g><path
         style="fill:url(#linearGradient8)"
         d="m 152.13627,226.8749 c -2.50572,-0.2554 -6.30963,-1.25682 -8.01255,-2.10941 -1.31592,-0.65882 -2.73031,-1.93456 -3.25482,-2.93573 -0.85666,-1.63519 -0.12798,-4.02689 1.50635,-4.94421 0.63392,-0.35581 0.78108,-0.31706 2.25778,0.59441 3.22862,1.99281 6.17457,2.79265 10.3346,2.80588 5.29879,0.0169 8.51299,-1.34187 10.2711,-4.34187 1.49311,-2.54779 1.05903,-6.55532 -0.9456,-8.73009 -2.06877,-2.24435 -5.23615,-3.0582 -11.90211,-3.0582 -3.53701,0 -3.68826,-0.0225 -4.008,-0.59531 -0.47165,-0.845 -0.43824,-4.1199 0.052,-5.09323 l 0.39976,-0.79375 5.28878,-0.13851 c 4.77068,-0.12494 5.41838,-0.19761 6.6117,-0.74179 2.75214,-1.25504 3.93055,-3.08395 3.95046,-6.13116 0.0312,-4.77491 -3.29043,-7.15059 -9.98276,-7.13984 -3.1246,0.005 -5.1962,0.50531 -8.47115,2.04575 l -2.63744,1.24058 -0.88366,-1.02225 c -1.49427,-1.72861 -1.51383,-3.39476 -0.0593,-5.05137 1.68322,-1.91708 5.18618,-3.24798 10.09497,-3.83544 4.44277,-0.53168 9.66845,0.23625 12.9948,1.90964 2.55488,1.28529 3.78309,2.29966 5.03967,4.16225 1.55274,2.30155 2.07716,4.3764 1.94606,7.6995 -0.0839,2.12754 -0.22036,2.76947 -0.87166,4.10104 -0.93754,1.91681 -2.6898,3.8434 -4.61925,5.07881 l -1.43675,0.91994 1.77906,0.93917 c 2.34951,1.24029 4.44795,3.36836 5.50626,5.58399 0.72484,1.5175 0.85526,2.11754 0.95751,4.40558 0.19747,4.41861 -0.83438,7.56492 -3.31681,10.11353 -2.84589,2.92177 -6.48131,4.45005 -12.10668,5.08946 -2.66203,0.30259 -3.27016,0.30002 -6.48229,-0.0274 z"
         id="path2" /></g></g></svg>
